<svg width="1885px" height="558px" viewBox="0 0 1885 558" version="1.1" xmlns="http://www.w3.org/2000/svg" xmlns:xlink="http://www.w3.org/1999/xlink">
    <defs>
        <rect id="path-1" x="0" y="0" width="1885" height="630"></rect>
    </defs>
    <g id="Page-1" stroke="none" stroke-width="1" fill="none" fill-rule="evenodd">
        <g id="hrh3a" transform="translate(0.000000, -72.000000)">
            <mask id="mask-2" fill="white">
                <use xlink:href="#path-1"></use>
            </mask>
            <g id="Mask"></g>
            <path d="M312.741,360.015 C413.908,366.488 385.56,357.139 485.52,370.905 C532.154,377.325 569.425,283.433 615.228,274.057 C653.534,266.217 772.78,309.867 811.932,314.527 C932.857,328.913 930.342,235.959 1052.668,235.797 C1113.284,235.717 1157.528,298.209 1216.445,291.782 C1264.325,286.557 1289.783,256.817 1351.893,241.743 C1395.623,231.13 1480.079,263.912 1516.286,262.213 C1563.704,259.987 1570.721,187.478 1607.299,173.389 C1646.207,158.401 1668.779,223.859 1744.495,241.743 C1798.472,254.491 1833.955,77.289 1889.795,71.126 C1933.064,66.352 1997.427,199.137 2037.585,212.576 C2107.54,235.987 2090.828,136.786 2090.828,136.786 L2163,638.71 C2163,638.71 -63.434,674.536 -69.995,677.947 C-76.557,681.359 -87.493,517.6 -78.744,517.6 L-69.994,517.6 C-69.994,517.6 144.656,349.259 312.741,360.015 Z" fill="#F6F6F6" fill-rule="nonzero" mask="url(#mask-2)"></path>
        </g>
    </g>
</svg>